SplineFontDB: 3.2
FontName: Untitled1
FullName: Untitled1
FamilyName: Untitled1
Weight: Regular
Copyright: Copyright (c) 2025, Bastien
UComments: "2025-9-1: Created with FontForge (http://fontforge.org)"
Version: 001.000
ItalicAngle: 0
UnderlinePosition: -100
UnderlineWidth: 50
Ascent: 800
Descent: 200
InvalidEm: 0
LayerCount: 2
Layer: 0 0 "Arri+AOgA-re" 1
Layer: 1 0 "Avant" 0
XUID: [1021 567 -905497874 12176008]
StyleMap: 0x0000
FSType: 0
OS2Version: 0
OS2_WeightWidthSlopeOnly: 0
OS2_UseTypoMetrics: 1
CreationTime: 1756745689
ModificationTime: 1756746653
OS2TypoAscent: 0
OS2TypoAOffset: 1
OS2TypoDescent: 0
OS2TypoDOffset: 1
OS2TypoLinegap: 90
OS2WinAscent: 0
OS2WinAOffset: 1
OS2WinDescent: 0
OS2WinDOffset: 1
HheadAscent: 0
HheadAOffset: 1
HheadDescent: 0
HheadDOffset: 1
DEI: 91125
Encoding: ISO8859-1
UnicodeInterp: none
NameList: AGL For New Fonts
DisplaySize: -48
AntiAlias: 1
FitToEm: 0
WinInfo: 0 18 14
BeginChars: 256 95

StartChar: exclam
Encoding: 33 33 1
Width: 301
VWidth: 999
Flags: HW
LayerCount: 2
Fore
SplineSet
141 721 m 1
 170 721 l 1
 169 238 l 1
 142 238 l 1
 141 721 l 1
174 18 m 0
 174 13 171 8 168 5 c 0
 165 2 161 0 156 0 c 0
 151 0 146 2 143 5 c 0
 140 8 137 13 137 18 c 0
 137 23 140 28 143 31 c 0
 146 34 151 36 156 36 c 0
 161 36 165 34 168 31 c 0
 171 28 174 23 174 18 c 0
EndSplineSet
EndChar

StartChar: quotedbl
Encoding: 34 34 2
Width: 381
VWidth: 999
Flags: HW
LayerCount: 2
Fore
SplineSet
189 772 m 1
 217 772 l 1
 217 576 l 1
 189 576 l 1
 189 772 l 1
204 576 m 1
 177 576 l 1
 177 772 l 1
 204 772 l 1
 204 576 l 1
EndSplineSet
EndChar

StartChar: numbersign
Encoding: 35 35 3
Width: 603
VWidth: 999
Flags: HW
LayerCount: 2
Fore
SplineSet
100 514 m 1
 100 536 l 1
 520 536 l 1
 520 514 l 1
 100 514 l 1
100 246 m 1
 100 268 l 1
 520 268 l 1
 520 246 l 1
 100 246 l 1
100 0 m 1
 248 721 l 1
 278 721 l 1
 129 0 l 1
 100 0 l 1
343 0 m 1
 491 721 l 1
 520 721 l 1
 372 0 l 1
 343 0 l 1
EndSplineSet
EndChar

StartChar: dollar
Encoding: 36 36 4
Width: 574
VWidth: 999
Flags: HW
LayerCount: 2
Fore
SplineSet
301 684 m 0
 389 684 472 647 530 582 c 1
 518 565 l 1
 463 628 384 664 301 664 c 0
 183 664 92 619 92 512 c 0
 92 425 152 378 240 359 c 2
 355 335 l 2
 457 313 526 260 526 159 c 0
 526 36 424 -18 289 -18 c 0
 203 -18 121 20 64 85 c 1
 76 101 l 1
 129 38 207 3 289 3 c 0
 408 3 499 51 499 159 c 0
 499 247 439 296 350 315 c 2
 235 339 l 2
 133 361 64 413 64 512 c 0
 64 634 167 684 301 684 c 0
287 772 m 1
 315 772 l 1
 303 -105 l 1
 275 -105 l 1
 287 772 l 1
EndSplineSet
EndChar

StartChar: percent
Encoding: 37 37 5
Width: 789
VWidth: 999
Flags: HW
LayerCount: 2
Fore
SplineSet
168 0 m 1
 613 721 l 1
 642 721 l 1
 198 0 l 1
 168 0 l 1
198 729 m 1
 299 729 359 662 359 560 c 0
 359 458 299 390 198 390 c 0
 97 390 36 458 36 560 c 0
 36 662 97 729 198 729 c 1
 198 708 l 1
 113 708 65 648 65 560 c 0
 65 472 113 412 198 412 c 0
 283 412 330 472 330 560 c 0
 330 648 283 708 198 708 c 1
 198 729 l 1
613 -8 m 1
 512 -8 451 59 451 161 c 0
 451 263 512 331 613 331 c 0
 714 331 775 263 775 161 c 0
 775 59 714 -8 613 -8 c 1
 613 13 l 1
 698 13 746 73 746 161 c 0
 746 249 698 309 613 309 c 0
 528 309 481 249 481 161 c 0
 481 73 528 13 613 13 c 1
 613 -8 l 1
EndSplineSet
EndChar

StartChar: ampersand
Encoding: 38 38 6
Width: 593
VWidth: 999
Flags: HW
LayerCount: 2
Fore
SplineSet
254 729 m 0
 322 729 387 701 433 650 c 1
 420 632 l 1
 378 680 318 708 254 708 c 0
 146 708 76 643 76 536 c 0
 76 463 128 400 200 386 c 1
 543 386 l 1
 543 364 l 1
 200 364 l 1
 179 375 l 1
 102 390 47 458 47 536 c 0
 47 658 130 729 254 729 c 0
179 375 m 1
 200 364 l 1
 119 343 63 270 63 187 c 0
 63 85 116 13 214 13 c 0
 314 13 399 87 412 187 c 1
 436 182 l 1
 419 72 325 -8 214 -8 c 0
 100 -8 34 70 34 187 c 0
 34 275 93 353 179 375 c 1
412 375 m 1
 441 375 l 1
 441 187 l 1
 522 0 l 1
 493 0 l 1
 412 187 l 1
 412 375 l 1
EndSplineSet
EndChar

StartChar: quotesingle
Encoding: 39 39 7
Width: 147
VWidth: 999
Flags: HW
LayerCount: 2
Fore
SplineSet
62 799 m 1
 91 799 l 1
 89 598 l 1
 64 598 l 1
 62 799 l 1
EndSplineSet
EndChar

StartChar: parenleft
Encoding: 40 40 8
Width: 334
VWidth: 999
Flags: HW
LayerCount: 2
Fore
SplineSet
284 772 m 1
 304 772 l 1
 188 655 123 497 123 332 c 0
 123 167 188 9 304 -108 c 1
 284 -108 l 1
 163 7 95 166 95 332 c 0
 95 498 163 657 284 772 c 1
EndSplineSet
EndChar

StartChar: parenright
Encoding: 41 41 9
Width: 334
VWidth: 999
Flags: HW
LayerCount: 2
Fore
SplineSet
40 772 m 1
 61 772 l 1
 182 657 249 498 249 332 c 0
 249 166 182 7 61 -108 c 1
 40 -108 l 1
 156 9 222 167 222 332 c 0
 222 497 156 655 40 772 c 1
EndSplineSet
EndChar

StartChar: asterisk
Encoding: 42 42 10
Width: 534
VWidth: 999
Flags: HW
LayerCount: 2
Fore
SplineSet
271 588 m 1
 81 648 l 1
 90 675 l 1
 279 612 l 1
 271 588 l 1
285 593 m 1
 169 431 l 1
 146 447 l 1
 264 607 l 1
 285 593 l 1
285 607 m 1
 403 447 l 1
 380 431 l 1
 264 593 l 1
 285 607 l 1
271 612 m 1
 460 675 l 1
 468 648 l 1
 279 588 l 1
 271 612 l 1
262 600 m 1
 260 799 l 1
 289 799 l 1
 287 600 l 1
 262 600 l 1
EndSplineSet
EndChar

StartChar: plus
Encoding: 43 43 11
Width: 603
VWidth: 999
Flags: HW
LayerCount: 2
Fore
SplineSet
78 278 m 1
 78 299 l 1
 542 299 l 1
 542 278 l 1
 78 278 l 1
295 57 m 1
 295 520 l 1
 325 520 l 1
 325 57 l 1
 295 57 l 1
EndSplineSet
EndChar

StartChar: comma
Encoding: 44 44 12
Width: 231
VWidth: 999
Flags: HW
LayerCount: 2
Fore
SplineSet
143 103 m 1
 172 103 l 1
 93 -103 l 1
 67 -103 l 1
 143 103 l 1
EndSplineSet
EndChar

StartChar: hyphen
Encoding: 45 45 13
Width: 603
VWidth: 999
Flags: HW
LayerCount: 2
Fore
SplineSet
78 278 m 1
 78 299 l 1
 542 299 l 1
 542 278 l 1
 78 278 l 1
EndSplineSet
EndChar

StartChar: period
Encoding: 46 46 14
Width: 251
VWidth: 999
Flags: HW
LayerCount: 2
Fore
SplineSet
148 10 m 0
 148 5 146 0 143 -3 c 0
 140 -6 135 -8 130 -8 c 0
 125 -8 120 -6 117 -3 c 0
 114 0 111 5 111 10 c 0
 111 15 114 20 117 23 c 0
 120 26 125 28 130 28 c 0
 135 28 140 26 143 23 c 0
 146 20 148 15 148 10 c 0
EndSplineSet
EndChar

StartChar: slash
Encoding: 47 47 15
Width: 417
VWidth: 999
Flags: HW
LayerCount: 2
Fore
SplineSet
358 729 m 1
 387 729 l 1
 72 -8 l 1
 42 -8 l 1
 358 729 l 1
EndSplineSet
EndChar

StartChar: zero
Encoding: 48 48 16
Width: 553
VWidth: 999
Flags: HW
LayerCount: 2
Fore
SplineSet
284 708 m 0
 123 708 96 547 96 360 c 0
 96 173 123 13 284 13 c 4
 445 13 472 173 472 360 c 0
 472 547 445 708 284 708 c 0
284 729 m 0
 459 729 502 582 502 360 c 0
 502 135 459 -8 284 -8 c 0
 109 -8 67 135 67 360 c 0
 67 582 109 729 284 729 c 0
EndSplineSet
EndChar

StartChar: one
Encoding: 49 49 17
Width: 553
VWidth: 999
Flags: HW
LayerCount: 2
Fore
SplineSet
281 721 m 1
 310 721 l 1
 310 22 l 1
 497 22 l 5
 497 0 l 5
 310 0 l 1
 281 0 l 1
 86 0 l 5
 86 22 l 5
 281 22 l 1
 281 695 l 1
 92 605 l 1
 92 631 l 1
 281 721 l 1
EndSplineSet
EndChar

StartChar: two
Encoding: 50 50 18
Width: 553
VWidth: 999
Flags: HW
HStem: 0 22<104.302 469> 708 21<185.331 308.303>
VStem: 439 30<434.436 591.732>
LayerCount: 2
Fore
SplineSet
62 630 m 1
 98 686 168 729 244 729 c 0
 374 729 469 644 469 512 c 0
 469 422 414 346 352 281 c 2
 104.301757812 26 l 5
 469 26 l 5
 469 0 l 1
 67 0 l 1
 67 22 l 1
 330 296 l 2
 388 357 439 428 439 512 c 0
 439 629 358 708 244 708 c 0
 172 708 106 659 80 616 c 1
 62 630 l 1
EndSplineSet
EndChar

StartChar: three
Encoding: 51 51 19
Width: 553
VWidth: 999
Flags: HW
LayerCount: 2
Fore
SplineSet
75 721 m 1
 469 721 l 1
 469 702 l 1
 219 429 l 1
 381 429 502 378 502 211 c 0
 502 71 403 -8 259 -8 c 0
 181 -8 86 38 46 105 c 5
 64 119 l 1
 100 55 185 13 259 13 c 0
 387 13 472 86 472 211 c 0
 472 347 376 408 228 408 c 2
 193 408 l 1
 186 429 l 1
 427 696 l 1
 75 696 l 1
 75 721 l 1
EndSplineSet
EndChar

StartChar: four
Encoding: 52 52 20
Width: 553
VWidth: 999
Flags: HW
LayerCount: 2
Fore
SplineSet
369 354 m 1
 398 365 l 1
 398 195 l 1
 526 195 l 1
 526 170 l 1
 398 170 l 1
 398 0 l 1
 369 0 l 1
 369 170 l 1
 67 170 l 1
 67 195 l 1
 338 721 l 1
 368 721 l 5
 97 195 l 5
 369 195 l 1
 369 354 l 1
EndSplineSet
EndChar

StartChar: five
Encoding: 53 53 21
Width: 553
VWidth: 999
Flags: HW
LayerCount: 2
Fore
SplineSet
129 346 m 5
 100 346 l 5
 100 721 l 5
 474 721 l 5
 474 694 l 5
 129 694 l 5
 129 381.459912167 l 5
 163.161022764 439.819970722 216.76074493 469 291 469 c 4
 425 469 502 376 502 238 c 4
 502 87 417 -8 266 -8 c 4
 183 -8 119 27 72 83 c 5
 89 98 l 5
 132 44 197 13 266 13 c 4
 400 13 472 102 472 238 c 4
 472 362 408 448 290 448 c 4
 221 448 153 407 129 346 c 5
EndSplineSet
EndChar

StartChar: six
Encoding: 54 54 22
Width: 553
VWidth: 999
Flags: HWO
LayerCount: 2
Fore
SplineSet
497 650 m 1
 485 632 l 1
 445 680 386 708 324 708 c 0
 139 708 96 529 96 317 c 2
 96 230 l 2
 96 102 162 13 284 13 c 0
 415 13 497 98 497 230 c 0
 497 360 423 447 297 447 c 0
 171 447 96 360 96 230 c 1
 77 230 l 1
 77 373 158 469 297 469 c 0
 440 469 526 374 526 230 c 0
 526 83 432 -8 284 -8 c 0
 123 -8 67 136 67 317 c 4
 67 544 125 729 324 729 c 0
 391 729 454 701 497 650 c 1
EndSplineSet
EndChar

StartChar: seven
Encoding: 55 55 23
Width: 553
VWidth: 999
Flags: HW
LayerCount: 2
Fore
SplineSet
67 699 m 1
 67 721 l 1
 502 721 l 1
 502 699 l 1
 67 699 l 1
472 699 m 1
 502 699 l 1
 200 0 l 1
 171 0 l 1
 472 699 l 1
EndSplineSet
EndChar

StartChar: eight
Encoding: 56 56 24
Width: 553
VWidth: 999
Flags: HW
LayerCount: 2
Fore
SplineSet
284 708 m 1
 284 729 l 1
 397 729 469 659 469 546 c 0
 469 434 396 365 284 365 c 0
 172 365 100 434 100 546 c 0
 100 659 171 729 284 729 c 1
 284 708 l 1
 187 708 129 644 129 546 c 0
 129 448 187 385 284 385 c 0
 381 385 439 448 439 546 c 0
 439 644 381 708 284 708 c 1
284 365 m 1
 284 385 l 1
 413 385 502 314 502 189 c 0
 502 64 414 -8 284 -8 c 0
 154 -8 67 64 67 189 c 0
 67 314 155 385 284 385 c 1
 284 365 l 1
 171 365 96 300 96 189 c 0
 96 78 171 13 284 13 c 0
 397 13 472 78 472 189 c 0
 472 300 397 365 284 365 c 1
EndSplineSet
EndChar

StartChar: nine
Encoding: 57 57 25
Width: 553
VWidth: 999
Flags: HW
LayerCount: 2
Fore
SplineSet
78 89 m 1
 125 41 189 13 256 13 c 0
 470 13 472 238 472 487 c 0
 472 616 407 708 284 708 c 0
 161 708 96 616 96 487 c 0
 96 361 163 274 284 274 c 0
 405 274 472 361 472 487 c 1
 499 487 l 1
 510 361 411 252 284 252 c 0
 147 252 67 347 67 487 c 0
 67 631 145 729 284 729 c 0
 443 729 502 588 502 409 c 0
 502 182 454 -8 256 -8 c 0
 184 -8 116 20 66 71 c 1
 78 89 l 1
EndSplineSet
EndChar

StartChar: colon
Encoding: 58 58 26
Width: 276
VWidth: 999
Flags: HW
LayerCount: 2
Fore
SplineSet
161 10 m 0
 161 5 159 0 156 -3 c 0
 153 -6 148 -8 143 -8 c 0
 138 -8 133 -6 130 -3 c 0
 127 0 124 5 124 10 c 0
 124 15 127 20 130 23 c 0
 133 26 138 28 143 28 c 0
 148 28 153 26 156 23 c 0
 159 20 161 15 161 10 c 0
161 526 m 0
 161 521 159 516 156 513 c 0
 153 510 148 507 143 507 c 0
 138 507 133 510 130 513 c 0
 127 516 124 521 124 526 c 0
 124 531 127 535 130 538 c 0
 133 541 138 544 143 544 c 0
 148 544 153 541 156 538 c 0
 159 535 161 531 161 526 c 0
EndSplineSet
EndChar

StartChar: semicolon
Encoding: 59 59 27
Width: 276
VWidth: 999
Flags: HW
LayerCount: 2
Fore
SplineSet
161 10 m 0
 161 5 159 0 156 -3 c 0
 153 -6 148 -8 143 -8 c 0
 138 -8 133 -6 130 -3 c 0
 127 0 124 5 124 10 c 0
 124 15 127 20 130 23 c 0
 133 26 138 28 143 28 c 0
 148 28 153 26 156 23 c 0
 159 20 161 15 161 10 c 0
189 103 m 1
 218 103 l 1
 93 -103 l 1
 67 -103 l 1
 189 103 l 1
EndSplineSet
EndChar

StartChar: less
Encoding: 60 60 28
Width: 563
VWidth: 999
Flags: HW
LayerCount: 2
Fore
SplineSet
67 257 m 1
 67 279 l 1
 512 540 l 1
 512 511 l 1
 67 257 l 1
67 257 m 1
 67 279 l 1
 512 25 l 1
 512 -4 l 1
 67 257 l 1
EndSplineSet
EndChar

StartChar: equal
Encoding: 61 61 29
Width: 603
VWidth: 999
Flags: HW
LayerCount: 2
Fore
SplineSet
100 297 m 1
 100 319 l 1
 520 319 l 1
 520 297 l 1
 100 297 l 1
520 238 m 1
 520 217 l 1
 100 217 l 1
 100 238 l 1
 520 238 l 1
EndSplineSet
EndChar

StartChar: greater
Encoding: 62 62 30
Width: 563
VWidth: 999
Flags: HW
LayerCount: 2
Fore
SplineSet
512 257 m 1
 67 511 l 1
 67 540 l 1
 512 279 l 1
 512 257 l 1
512 257 m 1
 67 -4 l 1
 67 25 l 1
 512 279 l 1
 512 257 l 1
EndSplineSet
EndChar

StartChar: question
Encoding: 63 63 31
Width: 518
VWidth: 999
Flags: HW
LayerCount: 2
Fore
SplineSet
48 622 m 1
 100 690 180 729 266 729 c 0
 387 729 466 658 466 539 c 0
 466 441 400 395 333 324 c 0
 285 274 244 213 244 144 c 1
 214 144 l 1
 214 222 267 287 322 343 c 0
 377 400 436 460 436 539 c 0
 436 643 370 708 266 708 c 0
 185 708 108 669 60 604 c 1
 48 622 l 1
247 10 m 0
 247 5 245 0 242 -3 c 0
 239 -6 234 -8 229 -8 c 0
 224 -8 219 -6 216 -3 c 0
 213 0 211 5 211 10 c 0
 211 15 213 20 216 23 c 0
 219 26 224 28 229 28 c 0
 234 28 239 26 242 23 c 0
 245 20 247 15 247 10 c 0
EndSplineSet
EndChar

StartChar: at
Encoding: 64 64 32
Width: 908
VWidth: 999
Flags: HW
LayerCount: 2
Fore
SplineSet
652 -10 m 1
 652 -31 l 1
 592 -50 529 -59 466 -59 c 0
 216 -59 64 104 64 357 c 0
 64 610 216 773 466 773 c 0
 719 773 869 600 869 340 c 0
 869 262 831 190 768 144 c 1
 757 143 l 1
 588 204 l 1
 597 222 l 1
 761 163 l 1
 811 208 841 272 841 340 c 0
 841 586 704 753 466 753 c 0
 232 753 91 596 91 357 c 0
 91 118 232 -38 466 -38 c 0
 529 -38 592 -29 652 -10 c 1
597 546 m 1
 618 546 l 1
 609 204 l 1
 588 204 l 1
 597 546 l 1
595 461 m 1
 610 471 l 1
 563 521 498 550 429 550 c 0
 135 550 1 310 1 -10 c 0
 1 -403 277 143 429 143 c 0
 488 143 544 165 588 204 c 1
 592 222 l 1
 546 184 488 164 429 164 c 0
 281 164 1 -431 1 -10 c 0
 1 301 141 530 429 530 c 0
 491 530 551 505 595 461 c 1
EndSplineSet
EndChar

StartChar: A
Encoding: 65 65 33
Width: 623
VWidth: 999
Flags: HW
LayerCount: 2
Fore
SplineSet
320 721 m 1
 335 721 l 1
 599 0 l 1
 569 0 l 1
 307 721 l 1
 320 721 l 1
306 721 m 1
 334 721 l 1
 71 0 l 1
 42 0 l 1
 306 721 l 1
153 226 m 1
 488 226 l 1
 488 206 l 1
 153 206 l 1
 153 226 l 1
EndSplineSet
EndChar

StartChar: B
Encoding: 66 66 34
Width: 613
VWidth: 999
Flags: HW
LayerCount: 2
Fore
SplineSet
100 721 m 1
 337 721 l 2
 464 721 557 663 557 545 c 0
 557 429 463 374 337 374 c 1
 100 383 l 1
 100 393 l 1
 337 393 l 2
 447 393 528 444 528 546 c 0
 528 648 447 699 337 699 c 2
 100 699 l 1
 100 721 l 1
100 383 m 1
 337 384 l 2
 478 384 589 333 589 206 c 0
 589 69 483 0 337 0 c 2
 100 0 l 1
 115 22 l 1
 337 22 l 2
 465 22 559 79 559 197 c 0
 559 315 465 373 337 373 c 2
 100 373 l 1
 100 383 l 1
100 721 m 1
 129 721 l 1
 129 0 l 1
 100 0 l 1
 100 721 l 1
EndSplineSet
EndChar

StartChar: C
Encoding: 67 67 35
Width: 608
VWidth: 999
Flags: HW
LayerCount: 2
Fore
SplineSet
568 611 m 1
 517 672 442 708 362 708 c 0
 180 708 96 558 96 360 c 0
 96 162 180 13 362 13 c 0
 452 13 514 45 568 117 c 1
 581 99 l 1
 529 31 447 -8 362 -8 c 0
 164 -8 67 147 67 360 c 0
 67 573 164 729 362 729 c 0
 455 729 520 700 581 629 c 1
 568 611 l 1
EndSplineSet
EndChar

StartChar: D
Encoding: 68 68 36
Width: 623
VWidth: 999
Flags: HW
LayerCount: 2
Fore
SplineSet
100 699 m 1
 100 721 l 1
 288 721 l 2
 478 721 574 574 574 371 c 0
 574 159 483 0 288 0 c 2
 100 0 l 1
 100 22 l 1
 288 22 l 2
 468 22 544 173 544 371 c 0
 544 560 462 699 288 699 c 2
 100 699 l 1
100 721 m 1
 129 721 l 1
 129 0 l 1
 100 0 l 1
 100 721 l 1
EndSplineSet
EndChar

StartChar: E
Encoding: 69 69 37
Width: 553
VWidth: 999
Flags: HW
LayerCount: 2
Fore
SplineSet
100 721 m 1
 129 721 l 1
 129 0 l 1
 100 0 l 1
 100 721 l 1
115 699 m 1
 115 721 l 1
 511 721 l 1
 511 699 l 1
 115 699 l 1
115 350 m 1
 115 371 l 1
 454 371 l 1
 454 350 l 1
 115 350 l 1
115 0 m 1
 115 22 l 1
 539 22 l 1
 539 0 l 1
 115 0 l 1
EndSplineSet
EndChar

StartChar: F
Encoding: 70 70 38
Width: 548
VWidth: 999
Flags: HW
LayerCount: 2
Fore
SplineSet
100 721 m 1
 129 721 l 1
 129 0 l 1
 100 0 l 1
 100 721 l 1
115 699 m 1
 115 721 l 1
 506 721 l 1
 506 699 l 1
 115 699 l 1
115 350 m 1
 115 371 l 1
 450 371 l 1
 450 350 l 1
 115 350 l 1
EndSplineSet
EndChar

StartChar: G
Encoding: 71 71 39
Width: 653
VWidth: 999
Flags: HW
LayerCount: 2
Fore
SplineSet
592 612 m 1
 534 673 453 708 369 708 c 0
 184 708 96 560 96 360 c 0
 96 164 186 22 369 22 c 0
 449 22 530 36 605 65 c 1
 605 43 l 1
 530 14 449 0 369 0 c 0
 171 0 67 150 67 360 c 0
 67 574 168 729 369 729 c 0
 458 729 543 693 605 630 c 1
 592 612 l 1
575 43 m 1
 575 360 l 1
 605 360 l 1
 605 43 l 1
 575 43 l 1
605 371 m 1
 605 350 l 1
 336 350 l 1
 336 371 l 1
 605 371 l 1
EndSplineSet
EndChar

StartChar: H
Encoding: 72 72 40
Width: 613
VWidth: 999
Flags: HW
LayerCount: 2
Fore
SplineSet
100 721 m 1
 129 721 l 1
 129 0 l 1
 100 0 l 1
 100 721 l 1
501 0 m 1
 501 721 l 1
 531 721 l 1
 531 0 l 1
 501 0 l 1
115 386 m 1
 115 407 l 1
 516 407 l 1
 516 386 l 1
 115 386 l 1
EndSplineSet
EndChar

StartChar: I
Encoding: 73 73 41
Width: 231
VWidth: 999
Flags: W
HStem: 0 21G<105 134> 701 20G<105 134>
VStem: 105 29<0 721>
LayerCount: 2
Fore
SplineSet
105 721 m 1
 134 721 l 1
 134 0 l 1
 105 0 l 1
 105 721 l 1
EndSplineSet
EndChar

StartChar: J
Encoding: 74 74 42
Width: 482
VWidth: 999
Flags: HW
LayerCount: 2
Fore
SplineSet
367 721 m 1
 397 721 l 1
 397 216 l 2
 397 85 330 -8 206 -8 c 0
 120 -8 63 37 44 121 c 1
 57 139 l 1
 71 58 124 12 206 12 c 0
 315 12 367 99 367 216 c 2
 367 721 l 1
EndSplineSet
EndChar

StartChar: K
Encoding: 75 75 43
Width: 583
VWidth: 999
Flags: HW
LayerCount: 2
Fore
SplineSet
100 721 m 1
 129 721 l 1
 129 0 l 1
 100 0 l 1
 100 721 l 1
494 721 m 1
 524 721 l 1
 158 360 l 1
 524 0 l 1
 494 0 l 1
 129 360 l 1
 494 721 l 1
EndSplineSet
EndChar

StartChar: L
Encoding: 76 76 44
Width: 523
VWidth: 999
Flags: HW
LayerCount: 2
Fore
SplineSet
100 721 m 1
 129 721 l 1
 129 0 l 1
 100 0 l 1
 100 721 l 1
115 0 m 1
 115 22 l 1
 494 22 l 1
 494 0 l 1
 115 0 l 1
EndSplineSet
EndChar

StartChar: M
Encoding: 77 77 45
Width: 754
VWidth: 999
Flags: HW
LayerCount: 2
Fore
SplineSet
100 721 m 1
 129 721 l 1
 129 0 l 1
 100 0 l 1
 100 721 l 1
645 721 m 1
 675 721 l 1
 675 0 l 1
 645 0 l 1
 645 721 l 1
108 721 m 1
 129 721 l 1
 398 180 l 1
 377 180 l 1
 108 721 l 1
645 721 m 1
 667 721 l 1
 398 180 l 1
 377 180 l 1
 645 721 l 1
EndSplineSet
EndChar

StartChar: N
Encoding: 78 78 46
Width: 643
VWidth: 999
Flags: HW
LayerCount: 2
Fore
SplineSet
100 721 m 1
 129 721 l 1
 129 0 l 1
 100 0 l 1
 100 721 l 1
532 721 m 1
 561 721 l 1
 561 0 l 1
 532 0 l 1
 532 721 l 1
100 721 m 1
 129 721 l 1
 554 0 l 1
 532 0 l 1
 100 721 l 1
EndSplineSet
EndChar

StartChar: O
Encoding: 79 79 47
Width: 663
VWidth: 999
Flags: W
HStem: -8 21<273.846 408.154> 708 21<274.389 407.611>
VStem: 67 29<223.103 497.045> 586 29<223.103 497.045>
LayerCount: 2
Fore
SplineSet
341 729 m 1
 532 729 615 569 615 360 c 0
 615 151 532 -8 341 -8 c 0
 150 -8 67 151 67 360 c 0
 67 569 150 729 341 729 c 1
 341 708 l 1
 166 708 96 555 96 360 c 0
 96 165 166 13 341 13 c 0
 516 13 586 165 586 360 c 0
 586 555 516 708 341 708 c 1
 341 729 l 1
EndSplineSet
EndChar

StartChar: P
Encoding: 80 80 48
Width: 603
VWidth: 999
Flags: HW
LayerCount: 2
Fore
SplineSet
100 721 m 1
 129 721 l 1
 129 0 l 1
 100 0 l 1
 100 721 l 1
115 721 m 1
 341 721 l 2
 472 721 553 637 553 505 c 0
 553 373 472 288 341 288 c 2
 115 288 l 1
 115 310 l 1
 341 310 l 2
 456 310 524 388 524 505 c 0
 524 622 456 699 341 699 c 2
 115 699 l 1
 115 721 l 1
EndSplineSet
EndChar

StartChar: Q
Encoding: 81 81 49
Width: 663
VWidth: 999
Flags: HW
LayerCount: 2
Fore
SplineSet
341 729 m 1
 532 729 614 570 614 361 c 0
 614 152 532 -7 341 -7 c 0
 150 -7 67 152 67 361 c 0
 67 570 150 729 341 729 c 1
 341 708 l 1
 166 708 96 556 96 361 c 0
 96 166 166 14 341 14 c 0
 516 14 585 166 585 361 c 0
 585 556 516 708 341 708 c 1
 341 729 l 1
355 1 m 1
 355 -88 398 -175 478 -175 c 2
 600 -175 l 1
 600 -197 l 1
 478 -197 l 2
 384 -197 326 -101 326 1 c 1
 355 1 l 1
EndSplineSet
EndChar

StartChar: R
Encoding: 82 82 50
Width: 603
VWidth: 999
Flags: HW
LayerCount: 2
Fore
SplineSet
100 721 m 1
 129 721 l 1
 129 0 l 1
 100 0 l 1
 100 721 l 1
115 721 m 1
 341 721 l 2
 472 721 553 637 553 505 c 0
 553 373 472 288 341 288 c 2
 115 288 l 1
 115 310 l 1
 341 310 l 2
 456 310 524 388 524 505 c 0
 524 622 456 699 341 699 c 2
 115 699 l 1
 115 721 l 1
356 299 m 1
 553 0 l 1
 524 0 l 1
 326 299 l 1
 356 299 l 1
EndSplineSet
EndChar

StartChar: S
Encoding: 83 83 51
Width: 583
VWidth: 999
Flags: HW
LayerCount: 2
Fore
SplineSet
306 729 m 0
 396 729 481 690 539 622 c 1
 526 604 l 1
 472 670 391 708 306 708 c 0
 187 708 96 659 96 550 c 0
 96 462 156 414 245 392 c 2
 361 363 l 2
 465 337 533 279 533 175 c 0
 533 49 431 -8 294 -8 c 0
 206 -8 123 31 67 99 c 1
 79 117 l 1
 131 52 210 13 294 13 c 0
 414 13 503 65 503 175 c 0
 503 265 445 315 355 337 c 2
 239 366 l 2
 136 392 67 448 67 550 c 0
 67 674 170 729 306 729 c 0
EndSplineSet
EndChar

StartChar: T
Encoding: 84 84 52
Width: 613
VWidth: 999
Flags: HW
LayerCount: 2
Fore
SplineSet
64 699 m 1
 64 721 l 1
 567 721 l 1
 567 699 l 1
 64 699 l 1
301 710 m 1
 330 710 l 1
 330 0 l 1
 301 0 l 1
 301 710 l 1
EndSplineSet
EndChar

StartChar: U
Encoding: 85 85 53
Width: 638
VWidth: 999
Flags: HW
LayerCount: 2
Fore
SplineSet
100 721 m 1
 129 721 l 1
 129 228 l 2
 129 99 203 13 328 13 c 0
 454 13 527 99 527 228 c 2
 527 721 l 1
 556 721 l 1
 556 228 l 2
 556 85 470 -8 328 -8 c 0
 186 -8 100 85 100 228 c 2
 100 721 l 1
EndSplineSet
EndChar

StartChar: V
Encoding: 86 86 54
Width: 658
VWidth: 999
Flags: HW
LayerCount: 2
Fore
SplineSet
50 721 m 1
 80 721 l 1
 350 0 l 1
 324 0 l 1
 50 721 l 1
597 721 m 1
 626 721 l 1
 353 0 l 1
 327 0 l 1
 597 721 l 1
EndSplineSet
EndChar

StartChar: W
Encoding: 87 87 55
Width: 824
VWidth: 999
Flags: HW
LayerCount: 2
Fore
SplineSet
50 721 m 1
 80 721 l 1
 178 360 l 1
 274 0 l 1
 248 0 l 1
 149 360 l 1
 50 721 l 1
250 0 m 1
 328 360 l 1
 328 360 l 1
 409 721 l 1
 435 721 l 1
 357 360 l 1
 357 360 l 1
 277 0 l 1
 250 0 l 1
412 721 m 1
 438 721 l 1
 519 360 l 1
 519 360 l 1
 596 0 l 1
 570 0 l 1
 489 360 l 1
 489 360 l 1
 412 721 l 1
573 0 m 1
 668 360 l 1
 767 721 l 1
 796 721 l 1
 698 360 l 1
 599 0 l 1
 573 0 l 1
EndSplineSet
EndChar

StartChar: X
Encoding: 88 88 56
Width: 663
VWidth: 999
Flags: HW
LayerCount: 2
Fore
SplineSet
42 721 m 1
 75 721 l 1
 356 360 l 1
 640 0 l 1
 607 0 l 1
 326 360 l 1
 42 721 l 1
611 721 m 1
 640 721 l 1
 355 360 l 1
 71 0 l 1
 42 0 l 1
 327 360 l 1
 611 721 l 1
EndSplineSet
EndChar

StartChar: Y
Encoding: 89 89 57
Width: 593
VWidth: 999
Flags: HW
LayerCount: 2
Fore
SplineSet
50 721 m 1
 80 721 l 1
 317 324 l 1
 290 324 l 1
 50 721 l 1
530 721 m 1
 559 721 l 1
 320 324 l 1
 293 324 l 1
 530 721 l 1
290 324 m 1
 320 324 l 1
 320 0 l 1
 290 0 l 1
 290 324 l 1
EndSplineSet
EndChar

StartChar: Z
Encoding: 90 90 58
Width: 603
VWidth: 999
Flags: HW
LayerCount: 2
Fore
SplineSet
100 699 m 1
 100 721 l 1
 520 721 l 1
 520 699 l 1
 100 699 l 1
100 0 m 1
 100 22 l 1
 520 22 l 1
 520 0 l 1
 100 0 l 1
507 722 m 1
 520 699 l 1
 113 -1 l 1
 100 22 l 1
 507 722 l 1
EndSplineSet
EndChar

StartChar: bracketleft
Encoding: 91 91 59
Width: 381
VWidth: 999
Flags: HW
LayerCount: 2
Fore
SplineSet
95 772 m 1
 123 772 l 1
 123 -108 l 1
 95 -108 l 1
 95 772 l 1
123 751 m 1
 123 772 l 1
 298 772 l 1
 298 751 l 1
 123 751 l 1
123 -108 m 1
 123 -88 l 1
 298 -88 l 1
 298 -108 l 1
 123 -108 l 1
EndSplineSet
EndChar

StartChar: backslash
Encoding: 92 92 60
Width: 417
VWidth: 999
Flags: HW
LayerCount: 2
Fore
SplineSet
42 729 m 1
 72 729 l 1
 387 -8 l 1
 358 -8 l 1
 42 729 l 1
EndSplineSet
EndChar

StartChar: bracketright
Encoding: 93 93 61
Width: 381
VWidth: 999
Flags: HW
LayerCount: 2
Fore
SplineSet
270 772 m 1
 298 772 l 1
 298 -108 l 1
 270 -108 l 1
 270 772 l 1
270 751 m 1
 95 751 l 1
 95 772 l 1
 270 772 l 1
 270 751 l 1
270 -108 m 1
 95 -108 l 1
 95 -88 l 1
 270 -88 l 1
 270 -108 l 1
EndSplineSet
EndChar

StartChar: asciicircum
Encoding: 94 94 62
Width: 480
VWidth: 999
Flags: HW
LayerCount: 2
Fore
SplineSet
64 658 m 1
 235 773 l 1
 259 773 l 1
 430 658 l 1
 417 642 l 1
 247 756 l 1
 247 756 l 1
 76 642 l 1
 64 658 l 1
EndSplineSet
EndChar

StartChar: underscore
Encoding: 95 95 63
Width: 533
VWidth: 999
Flags: HW
LayerCount: 2
Fore
SplineSet
100 0 m 1
 448 0 l 1
 448 -22 l 1
 100 -22 l 1
 100 0 l 1
EndSplineSet
EndChar

StartChar: grave
Encoding: 96 96 64
Width: 269
VWidth: 999
Flags: HW
LayerCount: 2
Fore
SplineSet
125 799 m 1
 153 799 l 1
 166 598 l 1
 141 598 l 1
 125 799 l 1
EndSplineSet
EndChar

StartChar: a
Encoding: 97 97 65
Width: 533
VWidth: 999
Flags: HW
LayerCount: 2
Fore
SplineSet
88 464 m 1
 135 520 185 544 258 544 c 0
 378 544 448 461 448 337 c 2
 448 0 l 1
 423 0 l 1
 419 101 l 1
 419 337 l 2
 419 446 362 522 258 522 c 0
 197 522 138 494 100 446 c 1
 88 464 l 1
448 305 m 1
 448 284 l 1
 243 284 l 2
 155 284 96 233 96 148 c 0
 96 63 155 13 243 13 c 0
 318 13 386 56 419 123 c 1
 419 101 l 1
 380 33 307 -8 229 -8 c 0
 131 -8 67 51 67 148 c 0
 67 251 144 305 253 305 c 2
 448 305 l 1
EndSplineSet
EndChar

StartChar: b
Encoding: 98 98 66
Width: 587
VWidth: 999
Flags: HW
LayerCount: 2
Fore
SplineSet
83 729 m 1
 113 729 l 1
 113 144 l 1
 108 0 l 1
 83 0 l 1
 83 144 l 1
 83 729 l 1
103 434 m 1
 147 502 221 544 302 544 c 0
 455 544 537 430 537 268 c 0
 537 106 455 -8 302 -8 c 0
 221 -8 147 33 103 101 c 1
 113 115 l 1
 154 51 226 12 302 12 c 0
 440 12 507 120 507 268 c 0
 507 416 440 523 302 523 c 0
 226 523 154 484 113 420 c 1
 103 434 l 1
EndSplineSet
EndChar

StartChar: c
Encoding: 99 99 67
Width: 508
VWidth: 999
Flags: HW
LayerCount: 2
Fore
SplineSet
455 455 m 1
 444 439 l 1
 401 498 351 524 277 524 c 0
 147 524 96 412 96 268 c 0
 96 124 147 11 277 11 c 0
 343 11 405 43 444 96 c 1
 455 80 l 1
 413 24 347 -8 277 -8 c 0
 133 -8 67 110 67 268 c 0
 67 426 133 544 277 544 c 0
 355 544 408 517 455 455 c 1
EndSplineSet
EndChar

StartChar: d
Encoding: 100 100 68
Width: 587
VWidth: 999
Flags: HW
LayerCount: 2
Fore
SplineSet
491 729 m 1
 520 729 l 1
 520 144 l 1
 520 0 l 1
 495 0 l 1
 491 144 l 1
 491 729 l 1
501 434 m 1
 491 420 l 1
 450 484 378 523 302 523 c 0
 164 523 96 416 96 268 c 0
 96 120 164 12 302 12 c 0
 378 12 450 51 491 115 c 1
 501 101 l 1
 457 33 382 -8 301 -8 c 0
 148 -8 67 106 67 268 c 0
 67 430 148 544 301 544 c 0
 382 544 457 502 501 434 c 1
EndSplineSet
EndChar

StartChar: e
Encoding: 101 101 69
Width: 548
VWidth: 999
Flags: HW
LayerCount: 2
Fore
SplineSet
493 263 m 1
 467 263 l 1
 467 283 l 2
 467 418 416 522 293 522 c 0
 163 522 96 422 96 283 c 2
 96 273 l 1
 96 263 l 2
 96 119 160 13 293 13 c 0
 355 13 416 35 464 75 c 1
 476 57 l 1
 424 15 360 -8 293 -8 c 0
 142 -8 67 110 67 273 c 0
 67 431 144 544 293 544 c 0
 434 544 497 427 497 273 c 0
 497 269 496 266 493 263 c 1
67 263 m 1
 67 283 l 1
 497 283 l 1
 493 263 l 1
 67 263 l 1
EndSplineSet
EndChar

StartChar: f
Encoding: 102 102 70
Width: 422
VWidth: 999
Flags: HW
LayerCount: 2
Fore
SplineSet
185 0 m 1
 185 624 l 2
 185 704 242 750 325 750 c 0
 339 750 354 749 368 748 c 1
 368 728 l 1
 326 728 l 2
 259 728 215 689 215 624 c 2
 215 0 l 1
 185 0 l 1
50 536 m 1
 368 536 l 1
 368 514 l 1
 50 514 l 1
 50 536 l 1
EndSplineSet
EndChar

StartChar: g
Encoding: 103 103 71
Width: 552
VWidth: 999
Flags: HW
LayerCount: 2
Fore
SplineSet
265 544 m 1
 383 544 463 480 463 367 c 0
 463 254 383 190 265 190 c 0
 147 190 67 254 67 367 c 0
 67 480 147 544 265 544 c 1
 265 523 l 1
 164 523 96 465 96 367 c 0
 96 269 164 212 265 212 c 0
 366 212 434 269 434 367 c 0
 434 465 366 523 265 523 c 1
 265 544 l 1
265 206 m 1
 265 190 l 1
 186 190 96 185 96 117 c 0
 96 41 177 43 265 43 c 2
 376 43 l 2
 450 43 501 5 501 -65 c 0
 501 -158 391 -197 284 -197 c 0
 184 -197 114 -168 42 -98 c 1
 58 -85 l 1
 126 -149 190 -175 284 -175 c 0
 377 -175 472 -142 472 -61 c 0
 472 -13 427 21 376 21 c 2
 265 21 l 2
 161 21 67 24 67 114 c 0
 67 204 161 206 265 206 c 1
526 536 m 1
 526 507 l 1
 376 507 l 1
 376 525 387 536 405 536 c 2
 526 536 l 1
EndSplineSet
EndChar

StartChar: h
Encoding: 104 104 72
Width: 553
VWidth: 999
Flags: HW
LayerCount: 2
Fore
SplineSet
100 721 m 1
 129 721 l 1
 129 0 l 1
 100 0 l 1
 100 721 l 1
122 375 m 1
 143 484 215 544 326 544 c 0
 431 544 485 464 485 353 c 2
 485 0 l 1
 456 0 l 1
 456 353 l 2
 456 450 414 523 325 523 c 0
 220 523 151 467 129 364 c 1
 122 375 l 1
EndSplineSet
EndChar

StartChar: i
Encoding: 105 105 73
Width: 301
VWidth: 999
Flags: HW
LayerCount: 2
Fore
SplineSet
67 514 m 1
 67 536 l 1
 186 536 l 1
 186 514 l 1
 67 514 l 1
172 536 m 1
 201 536 l 1
 201 0 l 1
 172 0 l 1
 172 536 l 1
205 690 m 0
 205 685 202 680 199 677 c 0
 196 674 191 672 186 672 c 0
 181 672 176 674 173 677 c 0
 170 680 168 685 168 690 c 0
 168 695 170 700 173 703 c 0
 176 706 181 708 186 708 c 0
 191 708 196 706 199 703 c 0
 202 700 205 695 205 690 c 0
EndSplineSet
EndChar

StartChar: j
Encoding: 106 106 74
Width: 271
VWidth: 999
Flags: HW
LayerCount: 2
Fore
SplineSet
137 536 m 1
 166 536 l 1
 166 1 l 2
 166 -102 171 -197 82 -197 c 2
 13 -197 l 1
 13 -175 l 1
 82 -175 l 2
 137 -175 137 -79 137 1 c 2
 137 536 l 1
170 690 m 0
 170 685 168 680 165 677 c 0
 162 674 157 672 152 672 c 0
 147 672 142 674 139 677 c 0
 136 680 133 685 133 690 c 0
 133 695 136 700 139 703 c 0
 142 706 147 709 152 709 c 0
 157 709 162 706 165 703 c 0
 168 700 170 695 170 690 c 0
EndSplineSet
EndChar

StartChar: k
Encoding: 107 107 75
Width: 513
VWidth: 999
Flags: HW
LayerCount: 2
Fore
SplineSet
100 721 m 1
 129 721 l 1
 129 0 l 1
 100 0 l 1
 100 721 l 1
370 536 m 1
 428 536 l 1
 158 268 l 1
 428 0 l 1
 370 0 l 1
 129 268 l 1
 370 536 l 1
144 257 m 1
 115 257 l 1
 115 279 l 1
 144 279 l 1
 144 257 l 1
EndSplineSet
EndChar

StartChar: l
Encoding: 108 108 76
Width: 261
VWidth: 999
Flags: HW
LayerCount: 2
Fore
SplineSet
120 729 m 1
 150 729 l 1
 150 107 l 2
 150 58 170 22 215 22 c 2
 255 22 l 1
 255 0 l 1
 215 0 l 2
 154 0 120 44 120 107 c 2
 120 729 l 1
EndSplineSet
EndChar

StartChar: m
Encoding: 109 109 77
Width: 824
VWidth: 999
Flags: HW
LayerCount: 2
Fore
SplineSet
100 536 m 1
 129 536 l 1
 129 0 l 1
 100 0 l 1
 100 536 l 1
122 438 m 1
 157 503 224 544 298 544 c 0
 369 544 415 507 431 438 c 1
 466 503 532 544 606 544 c 0
 704 544 747 461 747 353 c 2
 747 0 l 1
 718 0 l 1
 718 353 l 2
 718 447 689 523 606 523 c 0
 537 523 473 486 438 427 c 1
 438 353 l 1
 438 0 l 1
 409 0 l 1
 409 353 l 2
 409 447 380 523 297 523 c 0
 228 523 164 486 129 427 c 1
 122 438 l 1
EndSplineSet
EndChar

StartChar: n
Encoding: 110 110 78
Width: 543
VWidth: 999
Flags: HW
LayerCount: 2
Fore
SplineSet
67 536 m 1
 96 536 l 1
 96 0 l 1
 67 0 l 1
 67 536 l 1
89 438 m 1
 141 505 221 544 306 544 c 0
 414 544 475 466 475 353 c 2
 475 0 l 1
 446 0 l 1
 446 353 l 2
 446 452 399 523 306 523 c 0
 226 523 149 488 96 427 c 1
 89 438 l 1
EndSplineSet
EndChar

StartChar: o
Encoding: 111 111 79
Width: 578
VWidth: 999
Flags: W
HStem: -8 20<234.874 359.126> 523 21<233.49 360.51>
VStem: 67 29<164.281 376.695> 498 29<164.281 376.695>
LayerCount: 2
Fore
SplineSet
297 544 m 1
 448 544 527 431 527 272 c 0
 527 109 450 -8 297 -8 c 0
 144 -8 67 109 67 272 c 0
 67 431 146 544 297 544 c 1
 297 523 l 1
 162 523 96 417 96 272 c 0
 96 123 160 12 297 12 c 0
 434 12 498 123 498 272 c 0
 498 417 432 523 297 523 c 1
 297 544 l 1
EndSplineSet
EndChar

StartChar: p
Encoding: 112 112 80
Width: 586
VWidth: 999
Flags: HW
LayerCount: 2
Fore
SplineSet
83 536 m 1
 110 536 l 1
 113 429 l 1
 113 -197 l 1
 83 -197 l 1
 83 536 l 1
103 435 m 1
 146 503 221 544 302 544 c 0
 455 544 536 429 536 268 c 0
 536 107 455 -7 302 -7 c 0
 219 -7 144 37 103 109 c 1
 113 123 l 1
 152 55 223 13 301 13 c 0
 438 13 507 121 507 268 c 0
 507 415 438 524 301 524 c 0
 225 524 154 485 113 421 c 1
 103 435 l 1
EndSplineSet
EndChar

StartChar: q
Encoding: 113 113 81
Width: 586
VWidth: 999
Flags: HW
LayerCount: 2
Fore
SplineSet
493 536 m 1
 520 536 l 1
 520 -197 l 1
 490 -197 l 1
 490 429 l 1
 493 536 l 1
500 435 m 1
 490 421 l 1
 449 485 377 524 301 524 c 0
 164 524 96 415 96 268 c 0
 96 121 164 13 301 13 c 0
 379 13 451 55 490 123 c 1
 500 109 l 1
 459 37 384 -7 301 -7 c 0
 148 -7 67 107 67 268 c 0
 67 429 148 544 301 544 c 0
 382 544 457 503 500 435 c 1
EndSplineSet
EndChar

StartChar: r
Encoding: 114 114 82
Width: 362
VWidth: 999
Flags: HW
LayerCount: 2
Fore
SplineSet
100 536 m 1
 129 536 l 1
 129 0 l 1
 100 0 l 1
 100 536 l 1
118 443 m 1
 198 499 256 544 353 544 c 1
 353 522 l 1
 260 522 205 480 129 427 c 1
 118 443 l 1
EndSplineSet
EndChar

StartChar: s
Encoding: 115 115 83
Width: 472
VWidth: 999
Flags: HW
LayerCount: 2
Fore
SplineSet
258 544 m 0
 325 544 389 518 437 472 c 1
 424 455 l 1
 379 498 320 522 258 522 c 0
 167 522 96 490 96 409 c 0
 96 347 137 312 199 296 c 2
 293 273 l 2
 379 252 444 214 444 130 c 0
 444 25 348 -8 229 -8 c 0
 166 -8 106 21 67 71 c 1
 79 89 l 1
 114 41 170 13 229 13 c 0
 331 13 415 40 415 130 c 0
 415 200 359 229 287 247 c 2
 193 271 l 2
 117 290 67 333 67 409 c 0
 67 505 151 544 258 544 c 0
EndSplineSet
EndChar

StartChar: t
Encoding: 116 116 84
Width: 422
VWidth: 999
Flags: HW
LayerCount: 2
Fore
SplineSet
67 514 m 1
 67 536 l 1
 368 536 l 1
 368 514 l 1
 67 514 l 1
185 667 m 1
 215 721 l 1
 215 101 l 2
 215 48 248 13 301 13 c 2
 368 13 l 1
 368 -7 l 1
 343 -8 326 -8 301 -8 c 0
 231 -8 185 33 185 101 c 2
 185 667 l 1
EndSplineSet
EndChar

StartChar: u
Encoding: 117 117 85
Width: 543
VWidth: 999
Flags: HW
LayerCount: 2
Fore
SplineSet
462 536 m 1
 491 536 l 1
 491 0 l 1
 462 0 l 1
 462 536 l 1
67 536 m 1
 96 536 l 1
 96 182 l 2
 96 82 148 12 243 12 c 0
 340 12 426 71 462 161 c 1
 472 146 l 1
 434 52 343 -8 242 -8 c 0
 131 -8 67 68 67 182 c 2
 67 536 l 1
EndSplineSet
EndChar

StartChar: v
Encoding: 118 118 86
Width: 558
VWidth: 999
Flags: HW
LayerCount: 2
Fore
SplineSet
50 536 m 1
 80 536 l 1
 299 0 l 1
 272 0 l 1
 50 536 l 1
494 536 m 1
 523 536 l 1
 302 0 l 1
 275 0 l 1
 494 536 l 1
EndSplineSet
EndChar

StartChar: w
Encoding: 119 119 87
Width: 754
VWidth: 999
Flags: HW
LayerCount: 2
Fore
SplineSet
50 536 m 1
 80 536 l 1
 168 268 l 1
 254 0 l 1
 228 0 l 1
 139 268 l 1
 50 536 l 1
231 0 m 1
 300 268 l 1
 300 268 l 1
 373 536 l 1
 399 536 l 1
 329 268 l 1
 329 268 l 1
 257 0 l 1
 231 0 l 1
376 536 m 1
 402 536 l 1
 474 268 l 1
 474 268 l 1
 544 0 l 1
 518 0 l 1
 445 268 l 1
 445 268 l 1
 376 536 l 1
521 0 m 1
 606 268 l 1
 695 536 l 1
 724 536 l 1
 636 268 l 1
 547 0 l 1
 521 0 l 1
EndSplineSet
EndChar

StartChar: x
Encoding: 120 120 88
Width: 518
VWidth: 999
Flags: W
HStem: 0 21G<42 90.3731 442.627 490> 516 20G<42 90.3731 442.627 490>
LayerCount: 2
Fore
SplineSet
42 536 m 1
 75 536 l 1
 281 268 l 1
 490 0 l 1
 458 0 l 1
 252 268 l 1
 42 536 l 1
458 536 m 1
 490 536 l 1
 281 268 l 1
 75 0 l 1
 42 0 l 1
 252 268 l 1
 458 536 l 1
EndSplineSet
EndChar

StartChar: y
Encoding: 121 121 89
Width: 557
VWidth: 999
Flags: HW
LayerCount: 2
Fore
SplineSet
42 536 m 1
 71 536 l 1
 186 268 l 1
 298 1 l 1
 272 1 l 1
 157 268 l 1
 42 536 l 1
502 536 m 1
 531 536 l 1
 416 268 l 1
 301 1 l 1
 275 1 l 1
 387 268 l 1
 502 536 l 1
272 1 m 1
 301 1 l 1
 216 -197 l 1
 187 -197 l 1
 272 1 l 1
EndSplineSet
EndChar

StartChar: z
Encoding: 122 122 90
Width: 523
VWidth: 999
Flags: HW
LayerCount: 2
Fore
SplineSet
100 514 m 1
 100 536 l 1
 438 536 l 1
 438 514 l 1
 100 514 l 1
100 0 m 1
 100 22 l 1
 438 22 l 1
 438 0 l 1
 100 0 l 1
423 536 m 1
 438 514 l 1
 114 -1 l 1
 100 22 l 1
 423 536 l 1
EndSplineSet
EndChar

StartChar: braceleft
Encoding: 123 123 91
Width: 334
VWidth: 999
Flags: HW
LayerCount: 2
Fore
SplineSet
281 772 m 1
 281 751 l 1
 257 751 242 736 242 712 c 2
 242 381 l 2
 242 344 214 324 175 324 c 1
 175 342 l 1
 199 342 214 357 214 381 c 2
 214 712 l 2
 214 750 241 772 281 772 c 1
175 340 m 1
 214 340 242 320 242 283 c 2
 242 -48 l 2
 242 -72 257 -88 281 -88 c 1
 281 -108 l 1
 241 -108 214 -86 214 -48 c 2
 214 283 l 2
 214 307 199 322 175 322 c 1
 175 340 l 1
EndSplineSet
EndChar

StartChar: bar
Encoding: 124 124 92
Width: 343
VWidth: 999
Flags: HW
LayerCount: 2
Fore
SplineSet
163 799 m 1
 191 799 l 1
 191 -106 l 1
 163 -106 l 1
 163 799 l 1
EndSplineSet
EndChar

StartChar: braceright
Encoding: 125 125 93
Width: 334
VWidth: 999
Flags: HW
LayerCount: 2
Fore
SplineSet
64 753 m 1
 64 773 l 1
 104 773 131 752 131 714 c 2
 131 382 l 2
 131 358 146 343 170 343 c 1
 170 322 l 1
 130 322 103 344 103 382 c 2
 103 714 l 2
 103 738 88 753 64 753 c 1
170 322 m 1
 146 322 131 307 131 283 c 2
 131 -48 l 2
 131 -86 104 -108 64 -108 c 1
 64 -87 l 1
 88 -87 103 -72 103 -48 c 2
 103 283 l 2
 103 320 131 341 170 341 c 1
 170 322 l 1
EndSplineSet
EndChar

StartChar: asciitilde
Encoding: 126 126 94
Width: 628
VWidth: 999
Flags: HW
LayerCount: 2
Fore
SplineSet
67 214 m 1
 67 277 128 321 195 321 c 0
 249 321 286 309 329 277 c 1
 317 259 l 1
 278 289 244 300 195 300 c 0
 140 300 89 266 89 214 c 1
 67 214 l 1
579 321 m 1
 579 258 518 214 451 214 c 0
 397 214 360 227 317 259 c 1
 329 277 l 1
 368 247 402 236 451 236 c 0
 506 236 557 269 557 321 c 1
 579 321 l 1
EndSplineSet
EndChar
